<svg xmlns="http://www.w3.org/2000/svg" xmlns:xlink="http://www.w3.org/1999/xlink" width="24" height="24.001" viewBox="0 0 24 24.001"><defs><clipPath id="a"><path d="M3.515,20.486A12,12,0,0,1,20.486,3.515,12,12,0,1,1,3.515,20.486ZM12,22A10,10,0,1,0,2,12,10.012,10.012,0,0,0,12,22Zm1.437-7.618h-6.8a1.036,1.036,0,1,1,0-2.072h4.729V5.156a1.036,1.036,0,1,1,2.073,0v9.226h0Z" fill="#32b32e"/></clipPath></defs><path d="M12,24A12,12,0,0,1,3.515,3.514,12,12,0,0,1,20.486,20.486,11.923,11.923,0,0,1,12,24ZM12,2A10,10,0,1,0,22,12,10.012,10.012,0,0,0,12,2Zm1.438,12.383h-6.8a1.036,1.036,0,1,1,0-2.072h4.729V5.156a1.036,1.036,0,1,1,2.073,0v9.226Z" fill="#32b32e"/><path d="M12,24A12,12,0,0,1,3.515,3.514,12,12,0,0,1,20.486,20.486,11.923,11.923,0,0,1,12,24ZM12,2A10,10,0,1,0,22,12,10.012,10.012,0,0,0,12,2Zm1.438,12.383h-6.8a1.036,1.036,0,1,1,0-2.072h4.729V5.156a1.036,1.036,0,1,1,2.073,0v9.226Z" fill="#32b32e"/></svg>