<svg xmlns="http://www.w3.org/2000/svg" width="33" height="33" viewBox="0 0 33 33"><g transform="translate(0 0)"><path d="M-5727.5-421a16.39,16.39,0,0,1-11.667-4.832A16.39,16.39,0,0,1-5744-437.5a16.39,16.39,0,0,1,4.833-11.667A16.39,16.39,0,0,1-5727.5-454a16.391,16.391,0,0,1,11.667,4.833A16.393,16.393,0,0,1-5711-437.5a16.393,16.393,0,0,1-4.833,11.668A16.392,16.392,0,0,1-5727.5-421Zm0-13.9h0l5.232,5.232a1.489,1.489,0,0,0,1.163.466,1.266,1.266,0,0,0,1.047-.466,1.614,1.614,0,0,0,0-2.208l-5.116-5.118,5.116-5.116a1.489,1.489,0,0,0,.465-1.163,1.422,1.422,0,0,0-.35-1.047l-.115-.117a1.565,1.565,0,0,0-1.1-.436,1.565,1.565,0,0,0-1.1.436l-5.116,5.117-5.233-5.233a1.371,1.371,0,0,0-.984-.383,1.77,1.77,0,0,0-1.226.5,1.617,1.617,0,0,0,0,2.21l5.118,5.116-5.118,5.118a1.485,1.485,0,0,0-.537,1.089,1.485,1.485,0,0,0,.421,1.119,2.056,2.056,0,0,0,1.162.466,2.064,2.064,0,0,0,1.163-.466l5.116-5.115Z" transform="translate(5744 454)" fill="#fff"/></g></svg>