<svg xmlns="http://www.w3.org/2000/svg" xmlns:xlink="http://www.w3.org/1999/xlink" width="27" height="26" viewBox="0 0 27 26"><defs><clipPath id="a"><path d="M26.949,9.642a.97.97,0,0,0-.934-.683l-8.831-.022L14.4.674A.95.95,0,0,0,13.457,0a.969.969,0,0,0-.927.691L9.923,8.937.985,8.959a.97.97,0,0,0-.934.682A.981.981,0,0,0,.4,10.75l6.994,5.2L4.653,24.7a1,1,0,0,0,.94,1.3.967.967,0,0,0,.57-.188l7.374-5.244,7.3,5.24a.96.96,0,0,0,1.152,0,.983.983,0,0,0,.362-1.1L19.6,15.954l6.993-5.2a.984.984,0,0,0,.351-1.109" transform="translate(0.5)" fill="#5e7388"/></clipPath></defs><g transform="translate(-0.5)"><path d="M26.949,9.642a.97.97,0,0,0-.934-.683l-8.831-.022L14.4.674A.95.95,0,0,0,13.457,0a.969.969,0,0,0-.927.691L9.923,8.937.985,8.959a.97.97,0,0,0-.934.682A.981.981,0,0,0,.4,10.75l6.994,5.2L4.653,24.7a1,1,0,0,0,.94,1.3.967.967,0,0,0,.57-.188l7.374-5.244,7.3,5.24a.96.96,0,0,0,1.152,0,.983.983,0,0,0,.362-1.1L19.6,15.954l6.993-5.2a.984.984,0,0,0,.351-1.109" transform="translate(0.5)" fill="#5e7388"/></g></svg>