<svg xmlns="http://www.w3.org/2000/svg" width="161.284" height="46.674" viewBox="0 0 161.284 46.674"><path d="M-517.557-275.476a16.53,16.53,0,0,1-7.544-1.663,12.25,12.25,0,0,1-5.1-4.748,14.086,14.086,0,0,1-1.837-7.339,13.421,13.421,0,0,1,1.867-7.013,12.942,12.942,0,0,1,5.186-4.859,15.976,15.976,0,0,1,7.605-1.777A15.3,15.3,0,0,1-509.9-301.1a12.513,12.513,0,0,1,4.982,4.869,13.931,13.931,0,0,1,1.746,6.992,14.3,14.3,0,0,1-1.746,7.043,12.4,12.4,0,0,1-4.982,4.92,15.53,15.53,0,0,1-7.262,1.8C-517.294-275.471-517.425-275.472-517.557-275.476Zm4.41-8.645a7.452,7.452,0,0,0,1.715-5.094,7.463,7.463,0,0,0-1.715-5.1,5.685,5.685,0,0,0-4.513-1.98,5.6,5.6,0,0,0-4.43,2.041,7.407,7.407,0,0,0-1.746,5.033,7.393,7.393,0,0,0,1.746,5.043,5.6,5.6,0,0,0,4.43,2.041A5.687,5.687,0,0,0-513.147-284.121Zm28.346,8.645a16.527,16.527,0,0,1-7.543-1.663,12.239,12.239,0,0,1-5.1-4.748,14.1,14.1,0,0,1-1.838-7.339,13.418,13.418,0,0,1,1.838-7,12.945,12.945,0,0,1,5.185-4.859,15.968,15.968,0,0,1,7.6-1.776,15.317,15.317,0,0,1,7.483,1.776,12.863,12.863,0,0,1,3.358,2.675l-.02-3.287h8.166v25.52h-8.166v-3.766a12.645,12.645,0,0,1-3.359,2.695,15.543,15.543,0,0,1-7.224,1.78C-484.546-275.471-484.673-275.473-484.8-275.476Zm4.42-8.645h-.01a7.453,7.453,0,0,0,1.715-5.094,7.464,7.464,0,0,0-1.715-5.1,5.683,5.683,0,0,0-4.512-1.98,5.6,5.6,0,0,0-4.431,2.041,7.4,7.4,0,0,0-1.745,5.033,7.39,7.39,0,0,0,1.756,5.043,5.6,5.6,0,0,0,4.43,2.041A5.684,5.684,0,0,0-480.38-284.121Zm15.925.652V-294.39l12.74-7.278v25.478Zm-82.153,7.278v-16.016q-.173-3.726-3.725-3.726a5.105,5.105,0,0,0-4.482,2.624,12.244,12.244,0,0,0-1.684,6.747v10.371h-8.167v-25.468h7.442l.581,4.083a9.98,9.98,0,0,1,3.869-3.9,11.7,11.7,0,0,1,5.819-1.388,8.727,8.727,0,0,1,6.023,2.154,7.194,7.194,0,0,1,2.49,5.471v19.048Zm-49.732,0-6.237-10.606-2.266,1.695v8.911H-613v-45.955h8.156v28.776l12.117-8.922,4.951,4.369-9.034,6.819,9.963,14.913Zm15.138-.01v-25.448h8.157V-276.2Zm4.308-30.379a4.663,4.663,0,0,1-3.093-1.174,3.668,3.668,0,0,1-1.368-2.91,3.759,3.759,0,0,1,1.347-2.95,4.618,4.618,0,0,1,3.114-1.194,4.438,4.438,0,0,1,3.031,1.205,3.786,3.786,0,0,1,1.337,2.939,3.7,3.7,0,0,1-1.307,2.92,4.49,4.49,0,0,1-3.015,1.164Z" transform="translate(613 322.145)" fill="#fff"/></svg>