<svg xmlns="http://www.w3.org/2000/svg" width="17.577" height="17.576" viewBox="0 0 17.577 17.576"><path d="M16.539,17.576a1.043,1.043,0,0,1-.751-.321L10.98,12.444l0,0a6.838,6.838,0,0,1-4.041,1.333H6.906A6.918,6.918,0,0,1,2,2,6.873,6.873,0,0,1,6.826,0h.03a6.945,6.945,0,0,1,6.9,6.915,6.854,6.854,0,0,1-1.318,4.058l4.812,4.814a1.038,1.038,0,0,1-.716,1.789Zm-9.7-16.2a5.424,5.424,0,0,0-3.864,1.6,5.5,5.5,0,0,0-1.6,3.89A5.574,5.574,0,0,0,6.9,12.4h.024a5.422,5.422,0,0,0,3.863-1.6,5.5,5.5,0,0,0,1.6-3.89A5.575,5.575,0,0,0,6.861,1.378Z" transform="translate(0 0)" fill="#5e7388"/></svg>