<svg xmlns="http://www.w3.org/2000/svg" width="25.158" height="25.084" viewBox="0 0 25.158 25.084"><g transform="translate(1139 -755)" fill="none"><path d="M-1116.384,779.663l-5.755-5.557a1.5,1.5,0,0,1-.037-2.12,1.5,1.5,0,0,1,2.121-.037l5.755,5.557a1.5,1.5,0,0,1,.037,2.121,1.5,1.5,0,0,1-1.079.458A1.5,1.5,0,0,1-1116.384,779.663ZM-1139,764.5a9.5,9.5,0,0,1,9.5-9.5,9.5,9.5,0,0,1,9.5,9.5,9.5,9.5,0,0,1-9.5,9.5A9.5,9.5,0,0,1-1139,764.5Z" stroke="none"/><path d="M -1129.5 771 C -1125.915649414063 771 -1122.999633789063 768.083984375 -1122.999633789063 764.4996337890625 C -1122.999633789063 760.915771484375 -1125.915649414063 758.0001220703125 -1129.5 758.0001220703125 C -1133.084350585938 758.0001220703125 -1136.00048828125 760.915771484375 -1136.00048828125 764.4996337890625 C -1136.00048828125 768.083984375 -1133.084350585938 771 -1129.5 771 M -1115.342163085938 780.0840454101563 C -1115.71728515625 780.0840454101563 -1116.0927734375 779.9442138671875 -1116.38427734375 779.662841796875 L -1122.138916015625 774.1053466796875 C -1122.734741210938 773.5302124023438 -1122.7509765625 772.5806884765625 -1122.17578125 771.9849243164063 C -1121.881225585938 771.68017578125 -1121.48876953125 771.5267944335938 -1121.096069335938 771.5267944335938 C -1120.720947265625 771.5267944335938 -1120.345581054688 771.6666259765625 -1120.054565429688 771.947998046875 L -1114.299926757813 777.504638671875 C -1113.7041015625 778.0806274414063 -1113.687866210938 779.0300903320313 -1114.263061523438 779.6259155273438 C -1114.55712890625 779.9306640625 -1114.949340820313 780.083984375 -1115.342163085938 780.0840454101563 Z M -1129.5 774 C -1134.7470703125 774 -1139.00048828125 769.7466430664063 -1139.00048828125 764.4996337890625 C -1139.00048828125 759.2535400390625 -1134.7470703125 755.0001220703125 -1129.5 755.0001220703125 C -1124.253051757813 755.0001220703125 -1119.999633789063 759.2535400390625 -1119.999633789063 764.4996337890625 C -1119.999633789063 769.7466430664063 -1124.253051757813 774 -1129.5 774 Z" stroke="none" fill="#5e7388"/></g></svg>