<svg xmlns="http://www.w3.org/2000/svg" width="33" height="32.999" viewBox="0 0 33 32.999"><g transform="translate(0 -0.001)"><path d="M-6168.5-421a16.392,16.392,0,0,1-11.667-4.832A16.391,16.391,0,0,1-6185-437.5a16.394,16.394,0,0,1,4.833-11.668A16.392,16.392,0,0,1-6168.5-454a16.392,16.392,0,0,1,11.667,4.833A16.394,16.394,0,0,1-6152-437.5a16.391,16.391,0,0,1-4.833,11.666A16.392,16.392,0,0,1-6168.5-421Zm-7.05-17.149a1.482,1.482,0,0,0-1.049.451,1.483,1.483,0,0,0-.451,1.049,1.487,1.487,0,0,0,.451,1.052l6.1,6.1a2.115,2.115,0,0,0,1.1.4l.1-.1a1.375,1.375,0,0,0,1.1-.6l9.6-13.7a1.55,1.55,0,0,0-.4-2.1,1.7,1.7,0,0,0-.839-.228,1.692,1.692,0,0,0-1.36.728l-8.5,12.2-4.8-4.8A1.485,1.485,0,0,0-6175.55-438.15Z" transform="translate(6185 454)" fill="#fff"/></g></svg>