<svg xmlns="http://www.w3.org/2000/svg" width="33" height="32.999" viewBox="0 0 33 32.999"><path d="M-4674.5-225a16.4,16.4,0,0,1-11.668-4.832A16.391,16.391,0,0,1-4691-241.5a16.391,16.391,0,0,1,4.833-11.667A16.394,16.394,0,0,1-4674.5-258a16.39,16.39,0,0,1,11.667,4.833A16.391,16.391,0,0,1-4658-241.5a16.391,16.391,0,0,1-4.833,11.667A16.389,16.389,0,0,1-4674.5-225Zm0-9.228a1.972,1.972,0,0,0-1.969,1.971,1.971,1.971,0,0,0,1.969,1.968,1.971,1.971,0,0,0,1.969-1.968A1.972,1.972,0,0,0-4674.5-234.228Zm0-19.319a1.971,1.971,0,0,0-1.969,1.97v14.067a1.972,1.972,0,0,0,1.969,1.971,1.972,1.972,0,0,0,1.969-1.971v-14.067A1.972,1.972,0,0,0-4674.5-253.547Z" transform="translate(4691 258)" fill="#fff"/></svg>